<?xml version="1.0" encoding="UTF-8" standalone="no" ?>
<!DOCTYPE svg PUBLIC "-//W3C//DTD SVG 1.1//EN" "http://www.w3.org/Graphics/SVG/1.1/DTD/svg11.dtd">
<svg xmlns="http://www.w3.org/2000/svg" xmlns:xlink="http://www.w3.org/1999/xlink" version="1.1" width="1920" height="84" viewBox="0 0 1920 84" xml:space="preserve">
<desc>Created with Fabric.js 4.6.0</desc>
<defs>
</defs>
<g transform="matrix(53.12 0 0 2.29 957.1 41.84)" id="qxrl63kYdnwU4BQACc4Rs"  >
<path style="stroke: rgb(134,11,69); stroke-width: 0; stroke-dasharray: none; stroke-linecap: butt; stroke-dashoffset: 0; stroke-linejoin: miter; stroke-miterlimit: 4; fill: rgb(0,0,0); fill-opacity: 0.43; fill-rule: nonzero; opacity: 1;" vector-effect="non-scaling-stroke"  transform=" translate(0, 0)" d="M -18.11594 -18.11594 L 18.11594 -18.11594 L 18.11594 18.11594 L -18.11594 18.11594 z" stroke-linecap="round" />
</g>
<g transform="matrix(0.8 0 0 0.8 44.11 42.18)" id="UpdH2RqfgNoFMepI3_pIA"  >
<path style="stroke: rgb(161,196,70); stroke-width: 0; stroke-dasharray: none; stroke-linecap: butt; stroke-dashoffset: 0; stroke-linejoin: miter; stroke-miterlimit: 4; fill: rgb(245,136,112); fill-rule: nonzero; opacity: 1;" vector-effect="non-scaling-stroke"  transform=" translate(0, 0)" d="M 0 -34.48276 C 19.03448 -34.48276 34.48276 -19.03448 34.48276 0 C 34.48276 19.03448 19.03448 34.48276 0 34.48276 C -19.03448 34.48276 -34.48276 19.03448 -34.48276 0 C -34.48276 -19.03448 -19.03448 -34.48276 0 -34.48276 z" stroke-linecap="round" />
</g>
<g transform="matrix(0.81 0 0 0.81 210.45 41.84)" id="dzFnhlrUPve2QRa8BhWV1"  >
<path style="stroke: rgb(161,196,70); stroke-width: 0; stroke-dasharray: none; stroke-linecap: butt; stroke-dashoffset: 0; stroke-linejoin: miter; stroke-miterlimit: 4; fill: rgb(255,243,18); fill-opacity: 0.99; fill-rule: nonzero; opacity: 1;" vector-effect="non-scaling-stroke"  transform=" translate(0, 0)" d="M 0 -34.48276 C 19.03448 -34.48276 34.48276 -19.03448 34.48276 0 C 34.48276 19.03448 19.03448 34.48276 0 34.48276 C -19.03448 34.48276 -34.48276 19.03448 -34.48276 0 C -34.48276 -19.03448 -19.03448 -34.48276 0 -34.48276 z" stroke-linecap="round" />
</g>
<g transform="matrix(0.81 0 0 0.81 127.05 41.84)" id="NRO3dCGsufAbKuih__Atz"  >
<path style="stroke: rgb(161,196,70); stroke-width: 0; stroke-dasharray: none; stroke-linecap: butt; stroke-dashoffset: 0; stroke-linejoin: miter; stroke-miterlimit: 4; fill: rgb(186,215,147); fill-rule: nonzero; opacity: 1;" vector-effect="non-scaling-stroke"  transform=" translate(0, 0)" d="M 0 -34.48276 C 19.03448 -34.48276 34.48276 -19.03448 34.48276 0 C 34.48276 19.03448 19.03448 34.48276 0 34.48276 C -19.03448 34.48276 -34.48276 19.03448 -34.48276 0 C -34.48276 -19.03448 -19.03448 -34.48276 0 -34.48276 z" stroke-linecap="round" />
</g>
<g transform="matrix(21.27 0 0 0.63 1011.34 42.18)" id="3eK2jXjG-3ufJCTAwknts"  >
<path style="stroke: rgb(254,129,168); stroke-width: 0; stroke-dasharray: none; stroke-linecap: butt; stroke-dashoffset: 0; stroke-linejoin: miter; stroke-miterlimit: 4; fill: rgb(255,255,255); fill-rule: nonzero; opacity: 1;" vector-effect="non-scaling-stroke"  transform=" translate(0, 0)" d="M -34.48276 -34.48276 L 34.48276 -34.48276 L 34.48276 34.48276 L -34.48276 34.48276 z" stroke-linecap="round" />
</g>
<g transform="matrix(0.5 0 0 0.5 1834.34 42.18)" id="vjFtnVtkOsDKXhH9_hNN4"  >
<g style="" vector-effect="non-scaling-stroke"   >
		<g transform="matrix(1 0 0 1 0 0)" id="A8rKrni0fZFftzoeK7whz"  >
<path style="stroke: none; stroke-width: 1; stroke-dasharray: none; stroke-linecap: butt; stroke-dashoffset: 0; stroke-linejoin: miter; stroke-miterlimit: 4; fill: rgb(179,181,179); fill-rule: nonzero; opacity: 1;" vector-effect="non-scaling-stroke"  transform=" translate(-40.05, -40)" d="M 64.6 13.9 L 65.5 12.8 C 67.2 10.8 67.7 8.5 67 6.500000000000001 C 66.2 4.500000000000001 64.3 3.100000000000001 61.7 2.700000000000001 L 45.1 0.1 C 42.5 -0.30000000000000004 40.2 0.4 38.9 2.1 C 37.5 3.7 37.3 6.1 38.1 8.6 L 43.7 24.4 C 44.6 26.9 46.300000000000004 28.5 48.400000000000006 28.9 C 50.50000000000001 29.299999999999997 52.60000000000001 28.299999999999997 54.300000000000004 26.299999999999997 L 55.300000000000004 25.099999999999998 C 60.300000000000004 29.5 63.1 35.699999999999996 63.1 42.4 C 63.1 55.2 52.7 65.6 39.900000000000006 65.6 C 27.10000000000001 65.6 16.8 55.1 16.8 42.3 C 16.8 34.3 20.8 26.999999999999996 27.6 22.699999999999996 C 29.200000000000003 21.699999999999996 30.400000000000002 20.099999999999994 30.8 18.199999999999996 C 31.2 16.299999999999997 30.900000000000002 14.399999999999995 29.900000000000002 12.699999999999996 C 28.900000000000002 11.099999999999996 27.3 9.899999999999995 25.400000000000002 9.499999999999996 C 23.500000000000004 9.099999999999996 21.6 9.399999999999997 19.900000000000002 10.399999999999997 C 8.900000000000002 17.4 2.400000000000002 29.299999999999997 2.400000000000002 42.199999999999996 C 2.3 63.1 19.2 80 40 80 C 60.8 80 77.7 63.1 77.7 42.3 C 77.7 31.3 72.9 21 64.6 13.9 z" stroke-linecap="round" />
</g>
		<g transform="matrix(1 0 0 1 -0.05 0.01)" id="mzme4W44_SWr5vG_lEnwr"  >
<path style="stroke: none; stroke-width: 1; stroke-dasharray: none; stroke-linecap: butt; stroke-dashoffset: 0; stroke-linejoin: miter; stroke-miterlimit: 4; fill: rgb(255,255,255); fill-rule: nonzero; opacity: 1;" vector-effect="non-scaling-stroke"  transform=" translate(-40, -40.01)" d="M 72.9 42.3 C 72.9 60.4 58.10000000000001 75.19999999999999 40.00000000000001 75.19999999999999 C 21.900000000000006 75.19999999999999 7.1000000000000085 60.39999999999999 7.1000000000000085 42.29999999999999 C 7.1000000000000085 30.99999999999999 12.800000000000008 20.59999999999999 22.40000000000001 14.49999999999999 C 23.40000000000001 13.89999999999999 24.10000000000001 14.099999999999989 24.300000000000008 14.199999999999989 C 24.90000000000001 14.299999999999988 25.500000000000007 14.699999999999989 25.800000000000008 15.299999999999988 C 26.200000000000006 15.899999999999988 26.300000000000008 16.49999999999999 26.10000000000001 17.19999999999999 C 26.000000000000007 17.79999999999999 25.60000000000001 18.399999999999988 25.000000000000007 18.69999999999999 C 16.800000000000008 23.899999999999988 12.000000000000007 32.69999999999999 12.000000000000007 42.29999999999999 C 12.000000000000007 57.69999999999999 24.500000000000007 70.29999999999998 40.00000000000001 70.29999999999998 C 55.50000000000001 70.29999999999998 68 57.79999999999998 68 42.29999999999998 C 68 33.29999999999998 63.8 24.999999999999982 56.5 19.69999999999998 C 55.5 18.999999999999982 54.1 19.09999999999998 53.3 20.09999999999998 L 50.8 23.09999999999998 C 50.199999999999996 23.79999999999998 49.8 24.19999999999998 49.4 24.09999999999998 C 49 23.99999999999998 48.699999999999996 23.59999999999998 48.4 22.69999999999998 L 42.6 7 C 42.300000000000004 6.2 42.2 5.6 42.5 5.2 C 42.8 4.7 43.5 4.8 44.3 4.9 L 61 7.4 C 62.2 7.6000000000000005 62.4 7.7 62.6 8.1 C 62.7 8.4 62.5 9 61.9 9.7 L 59.5 12.6 C 59.1 13.1 58.9 13.7 59 14.4 C 59.1 15 59.4 15.6 59.9 16 C 68.1 22.4 72.9 31.9 72.9 42.3 z" stroke-linecap="round" />
</g>
</g>
</g>
</svg>